<svg width="40" height="40" viewBox="0 0 40 40" fill="none" xmlns="http://www.w3.org/2000/svg">
<path d="M0 14C0 6.26801 6.26801 0 14 0H26C33.732 0 40 6.26801 40 14V26C40 33.732 33.732 40 26 40H14C6.26801 40 0 33.732 0 26V14Z" fill="url(#paint0_linear_4923_2102)" fill-opacity="0.2"/>
<path d="M26 22C26 22.3536 25.8595 22.6928 25.6095 22.9428C25.3594 23.1929 25.0203 23.3333 24.6667 23.3333H16.6667L14 26V15.3333C14 14.9797 14.1405 14.6406 14.3905 14.3905C14.6406 14.1405 14.9797 14 15.3333 14H24.6667C25.0203 14 25.3594 14.1405 25.6095 14.3905C25.8595 14.6406 26 14.9797 26 15.3333V22Z" stroke="url(#paint1_linear_4923_2102)" stroke-width="1.33333" stroke-linecap="round" stroke-linejoin="round"/>
<defs>
<linearGradient id="paint0_linear_4923_2102" x1="0" y1="0" x2="40" y2="40" gradientUnits="userSpaceOnUse">
<stop stop-color="#00C950"/>
<stop offset="1" stop-color="#009966"/>
</linearGradient>
<linearGradient id="paint1_linear_4923_2102" x1="14" y1="14" x2="26" y2="26" gradientUnits="userSpaceOnUse">
<stop stop-color="#00C950"/>
<stop offset="1" stop-color="#009966"/>
</linearGradient>
</defs>
</svg>
